<?xml version="1.0" standalone="no"?>
<!DOCTYPE svg PUBLIC "-//W3C//DTD SVG 20010904//EN"
 "http://www.w3.org/TR/2001/REC-SVG-20010904/DTD/svg10.dtd">
<svg version="1.0" xmlns="http://www.w3.org/2000/svg"
 width="920.000000pt" height="920.000000pt" viewBox="0 0 920.000000 920.000000"
 preserveAspectRatio="xMidYMid meet">

<g transform="translate(0.000000,920.000000) scale(0.100000,-0.100000)"
fill="#000000" stroke="none">
<path d="M2921 8154 c-141 -38 -273 -146 -335 -276 -47 -98 -60 -163 -53 -274
16 -267 224 -475 491 -491 112 -7 184 7 274 52 124 63 216 167 263 296 l22 59
226 0 c206 0 230 -2 271 -21 55 -25 95 -62 123 -114 22 -39 22 -50 25 -517 l3
-478 -493 0 c-293 0 -519 -4 -557 -11 -35 -5 -89 -22 -120 -36 -68 -32 -169
-130 -199 -194 -48 -100 -52 -149 -52 -679 l1 -495 -443 -3 c-291 -1 -461 1
-496 9 -71 14 -130 61 -164 128 l-28 55 0 226 0 227 59 22 c129 47 233 139
296 263 45 90 59 162 52 273 -12 206 -132 374 -326 457 -72 31 -83 32 -201 33
-119 0 -128 -2 -201 -33 -194 -84 -315 -252 -326 -457 -7 -111 8 -184 52 -273
63 -124 167 -216 296 -263 l59 -22 0 -231 c0 -195 3 -242 19 -298 49 -177 186
-305 369 -344 52 -11 169 -14 525 -14 l457 0 0 -130 0 -130 -458 0 c-286 0
-481 -4 -518 -11 -134 -24 -278 -129 -337 -245 -49 -97 -57 -153 -57 -402 l0
-229 -59 -22 c-368 -134 -471 -600 -195 -878 98 -97 234 -153 374 -153 198 0
384 114 473 291 144 287 8 630 -294 740 l-59 22 0 226 c0 206 2 230 21 271 25
55 62 95 114 123 39 22 50 22 518 25 l477 3 0 -492 c0 -318 4 -516 11 -558 31
-181 164 -318 346 -356 54 -12 169 -15 563 -15 l495 1 3 -443 c1 -291 -1 -461
-9 -496 -14 -71 -61 -130 -128 -164 l-55 -28 -226 0 -227 0 -22 59 c-134 368
-600 471 -878 195 -189 -190 -204 -500 -34 -710 93 -115 223 -182 371 -191
108 -7 187 8 275 52 126 62 218 165 266 296 l22 59 231 0 c247 0 286 6 391 54
73 33 172 132 209 209 52 106 55 143 56 645 l0 462 130 0 130 0 0 -458 c0
-286 4 -481 11 -518 24 -134 129 -278 245 -337 97 -49 153 -57 402 -57 l229 0
22 -58 c48 -132 138 -233 263 -297 89 -44 162 -59 273 -52 106 6 180 31 268
91 269 184 304 575 72 811 -272 275 -743 170 -876 -196 l-22 -59 -226 0 c-206
0 -230 2 -271 21 -55 25 -95 62 -123 114 -22 39 -22 50 -25 518 l-3 477 492 0
c523 0 585 4 676 47 124 57 221 192 242 333 6 36 10 250 10 475 0 226 0 445 0
488 l1 78 478 -3 c428 -3 480 -5 508 -20 57 -31 97 -71 120 -123 23 -48 24
-60 24 -277 l0 -226 -37 -13 c-175 -56 -312 -201 -358 -376 -87 -332 170 -663
515 -663 289 0 530 237 530 521 0 96 -15 165 -55 244 -62 126 -165 218 -296
266 l-59 22 0 229 c0 249 -8 305 -57 402 -59 116 -203 221 -337 245 -37 7
-232 11 -518 11 l-458 0 0 130 0 130 458 0 c286 0 481 4 518 11 181 33 332
175 379 356 11 43 15 116 15 289 l0 232 38 13 c176 57 312 202 358 382 22 85
15 231 -16 310 -138 362 -602 464 -874 192 -276 -276 -172 -742 195 -876 l59
-22 0 -226 c0 -216 -1 -228 -24 -276 -12 -28 -39 -65 -59 -82 -69 -61 -91 -63
-594 -63 l-453 0 0 493 c0 292 -4 518 -11 556 -5 35 -22 89 -37 120 -33 68
-130 168 -194 199 -98 48 -147 52 -681 52 l-498 0 3 478 c3 467 3 478 25 517
28 52 68 89 123 114 41 19 65 21 271 21 l226 0 22 -59 c134 -368 600 -471 877
-193 150 149 196 379 115 573 -80 193 -251 315 -456 326 -111 7 -184 -8 -273
-52 -124 -63 -216 -167 -263 -296 l-22 -59 -229 0 c-249 0 -305 -8 -402 -57
-116 -59 -221 -203 -245 -337 -7 -37 -11 -232 -11 -518 l0 -458 -130 0 -130 0
0 458 c0 286 -4 481 -11 518 -24 134 -129 278 -245 337 -97 49 -153 57 -402
57 l-229 0 -22 58 c-60 167 -198 293 -368 337 -71 19 -201 18 -272 -1z m240
-239 c149 -53 226 -217 175 -373 -23 -69 -75 -126 -151 -163 -59 -29 -71 -31
-138 -27 -240 15 -359 281 -213 473 68 89 215 129 327 90z m3118 -20 c64 -35
105 -82 131 -153 36 -97 17 -213 -49 -292 -16 -20 -53 -49 -82 -65 -48 -27
-63 -30 -139 -30 -70 0 -93 4 -130 23 -120 63 -178 179 -158 311 16 99 91 192
182 225 67 25 180 16 245 -19z m-4619 -1484 c69 -26 121 -71 156 -133 26 -47
29 -63 29 -138 0 -70 -4 -93 -23 -130 -99 -190 -348 -220 -486 -59 -99 116
-83 314 34 410 79 65 196 86 290 50z m6086 -2 c105 -40 173 -134 182 -252 14
-194 -156 -342 -348 -303 -186 39 -285 243 -199 414 68 137 220 195 365 141z
m-1710 -281 c52 -28 91 -82 104 -140 8 -39 10 -421 8 -1423 -3 -1482 0 -1387
-57 -1448 -61 -67 56 -62 -1456 -65 -1002 -2 -1384 0 -1423 8 -58 13 -112 52
-140 104 -16 29 -17 135 -20 1414 -2 960 1 1396 8 1423 16 57 72 116 129 133
39 13 252 15 1431 13 1282 -2 1387 -3 1416 -19z m-4385 -2789 c76 -19 160
-105 189 -193 20 -61 8 -163 -25 -224 -86 -159 -304 -200 -445 -83 -116 95
-133 294 -34 409 80 94 183 124 315 91z m6054 6 c89 -15 181 -96 211 -188 24
-72 15 -169 -22 -237 -137 -251 -521 -167 -542 120 -8 114 41 213 136 272 37
23 134 49 162 43 8 -2 33 -6 55 -10z m-4555 -1506 c54 -16 130 -77 162 -129
52 -85 52 -218 0 -302 -81 -131 -255 -176 -392 -102 -125 68 -182 221 -131
354 34 90 89 144 180 176 45 16 132 18 181 3z m3129 -24 c159 -87 199 -304 82
-445 -89 -109 -276 -132 -391 -49 -81 59 -123 143 -121 244 1 125 75 225 198
271 62 23 168 13 232 -21z"/>
<path d="M4104 5381 c-84 -51 -137 -167 -282 -616 -50 -154 -132 -408 -183
-564 -79 -247 -90 -290 -83 -320 10 -40 62 -81 101 -81 36 0 91 29 112 59 14
20 69 186 107 324 5 16 27 17 283 17 l279 0 37 -152 c21 -84 44 -165 52 -180
22 -45 56 -61 115 -56 42 4 57 11 80 37 36 41 36 75 -1 205 -43 150 -45 163
-27 191 25 38 20 98 -9 134 -14 16 -34 33 -44 36 -23 7 -16 -12 -152 400 -114
348 -150 442 -196 508 -51 73 -126 96 -189 58z m154 -654 c51 -151 92 -277 92
-280 0 -4 -86 -7 -191 -7 l-190 0 6 23 c28 93 181 537 186 537 3 0 47 -123 97
-273z"/>
<path d="M5015 5380 c-71 -3 -140 -11 -152 -18 -80 -45 -86 -170 -9 -205 24
-11 61 -13 165 -9 l134 5 -7 -159 c-3 -88 -11 -280 -16 -429 -5 -148 -12 -327
-16 -397 l-6 -126 -129 -4 c-125 -3 -129 -4 -156 -31 -23 -23 -28 -36 -27 -77
0 -34 6 -56 20 -71 43 -47 55 -49 413 -56 l340 -6 35 35 c31 31 36 43 36 81 0
49 -26 92 -66 107 -12 5 -69 10 -125 11 l-102 2 7 171 c13 325 26 741 26 844
l0 102 99 0 c112 0 141 13 161 75 25 76 -19 138 -109 155 -56 11 -297 11 -516
0z"/>
</g>
</svg>
